<svg width="100%" height="100%" id="svg" viewBox="0 0 1440 700" xmlns="http://www.w3.org/2000/svg" class="transition duration-300 ease-in-out delay-150"><defs><linearGradient id="gradient" x1="72%" y1="5%" x2="28%" y2="95%"><stop offset="5%" stop-color="#28282b88"></stop><stop offset="95%" stop-color="#00000088"></stop></linearGradient></defs><path d="M 0,700 C 0,700 0,233 0,233 C 97.57894736842107,215.64114832535887 195.15789473684214,198.2822966507177 279,208 C 362.84210526315786,217.7177033492823 432.9473684210526,254.51196172248802 531,260 C 629.0526315789474,265.488038277512 755.0526315789475,239.66985645933013 852,242 C 948.9473684210525,244.33014354066987 1016.8421052631579,274.8086124401914 1110,278 C 1203.157894736842,281.1913875598086 1321.578947368421,257.0956937799043 1440,233 C 1440,233 1440,700 1440,700 Z" stroke="none" stroke-width="0" fill="url(#gradient)" class="transition-all duration-300 ease-in-out delay-150 path-0" transform="rotate(-180 720 350)"></path><defs><linearGradient id="gradient" x1="72%" y1="5%" x2="28%" y2="95%"><stop offset="5%" stop-color="#28282bff"></stop><stop offset="95%" stop-color="#000000ff"></stop></linearGradient></defs><path d="M 0,700 C 0,700 0,466 0,466 C 124.3732057416268,487.03349282296654 248.7464114832536,508.066985645933 335,489 C 421.2535885167464,469.933014354067 469.38755980861254,410.7655502392345 558,411 C 646.6124401913875,411.2344497607655 775.7033492822967,470.8708133971291 883,475 C 990.2966507177033,479.1291866028709 1075.799043062201,427.7511961722488 1165,417 C 1254.200956937799,406.2488038277512 1347.1004784688994,436.1244019138756 1440,466 C 1440,466 1440,700 1440,700 Z" stroke="none" stroke-width="0" fill="url(#gradient)" class="transition-all duration-300 ease-in-out delay-150 path-1" transform="rotate(-180 720 350)"></path></svg>