<?xml version="1.0" standalone="no"?>
<svg xmlns:xlink="http://www.w3.org/1999/xlink" id="wave" style="transform:rotate(180deg); transition: 0.3s" viewBox="0 0 1440 490" version="1.1" xmlns="http://www.w3.org/2000/svg"><defs><linearGradient id="sw-gradient-0" x1="0" x2="0" y1="1" y2="0"><stop stop-color="rgba(16, 14, 14, 1)" offset="0%"/><stop stop-color="rgba(104.517, 96.976, 109.713, 1)" offset="100%"/></linearGradient></defs><path style="transform:translate(0, 0px); opacity:1" fill="url(#sw-gradient-0)" d="M0,392L80,343C160,294,320,196,480,155.2C640,114,800,131,960,130.7C1120,131,1280,114,1440,122.5C1600,131,1760,163,1920,171.5C2080,180,2240,163,2400,147C2560,131,2720,114,2880,155.2C3040,196,3200,294,3360,318.5C3520,343,3680,294,3840,285.8C4000,278,4160,310,4320,277.7C4480,245,4640,147,4800,147C4960,147,5120,245,5280,245C5440,245,5600,147,5760,98C5920,49,6080,49,6240,89.8C6400,131,6560,212,6720,245C6880,278,7040,261,7200,245C7360,229,7520,212,7680,196C7840,180,8000,163,8160,155.2C8320,147,8480,147,8640,187.8C8800,229,8960,310,9120,285.8C9280,261,9440,131,9600,98C9760,65,9920,131,10080,187.8C10240,245,10400,294,10560,294C10720,294,10880,245,11040,220.5C11200,196,11360,196,11440,196L11520,196L11520,490L11440,490C11360,490,11200,490,11040,490C10880,490,10720,490,10560,490C10400,490,10240,490,10080,490C9920,490,9760,490,9600,490C9440,490,9280,490,9120,490C8960,490,8800,490,8640,490C8480,490,8320,490,8160,490C8000,490,7840,490,7680,490C7520,490,7360,490,7200,490C7040,490,6880,490,6720,490C6560,490,6400,490,6240,490C6080,490,5920,490,5760,490C5600,490,5440,490,5280,490C5120,490,4960,490,4800,490C4640,490,4480,490,4320,490C4160,490,4000,490,3840,490C3680,490,3520,490,3360,490C3200,490,3040,490,2880,490C2720,490,2560,490,2400,490C2240,490,2080,490,1920,490C1760,490,1600,490,1440,490C1280,490,1120,490,960,490C800,490,640,490,480,490C320,490,160,490,80,490L0,490Z"/></svg>