<?xml version="1.0" standalone="no"?>
<svg xmlns:xlink="http://www.w3.org/1999/xlink" id="wave" style="transform:rotate(0deg); transition: 0.3s" viewBox="0 0 1440 490" version="1.1" xmlns="http://www.w3.org/2000/svg"><defs><linearGradient id="sw-gradient-0" x1="0" x2="0" y1="1" y2="0"><stop stop-color="rgba(16, 14, 14, 1)" offset="0%"/><stop stop-color="rgba(104.517, 96.976, 109.713, 1)" offset="100%"/></linearGradient></defs><path style="transform:translate(0, 0px); opacity:1" fill="url(#sw-gradient-0)" d="M0,147L80,147C160,147,320,147,480,122.5C640,98,800,49,960,32.7C1120,16,1280,33,1440,32.7C1600,33,1760,16,1920,81.7C2080,147,2240,294,2400,367.5C2560,441,2720,441,2880,400.2C3040,359,3200,278,3360,269.5C3520,261,3680,327,3840,326.7C4000,327,4160,261,4320,212.3C4480,163,4640,131,4800,106.2C4960,82,5120,65,5280,106.2C5440,147,5600,245,5760,277.7C5920,310,6080,278,6240,245C6400,212,6560,180,6720,204.2C6880,229,7040,310,7200,285.8C7360,261,7520,131,7680,65.3C7840,0,8000,0,8160,32.7C8320,65,8480,131,8640,130.7C8800,131,8960,65,9120,89.8C9280,114,9440,229,9600,245C9760,261,9920,180,10080,147C10240,114,10400,131,10560,179.7C10720,229,10880,310,11040,285.8C11200,261,11360,131,11440,65.3L11520,0L11520,490L11440,490C11360,490,11200,490,11040,490C10880,490,10720,490,10560,490C10400,490,10240,490,10080,490C9920,490,9760,490,9600,490C9440,490,9280,490,9120,490C8960,490,8800,490,8640,490C8480,490,8320,490,8160,490C8000,490,7840,490,7680,490C7520,490,7360,490,7200,490C7040,490,6880,490,6720,490C6560,490,6400,490,6240,490C6080,490,5920,490,5760,490C5600,490,5440,490,5280,490C5120,490,4960,490,4800,490C4640,490,4480,490,4320,490C4160,490,4000,490,3840,490C3680,490,3520,490,3360,490C3200,490,3040,490,2880,490C2720,490,2560,490,2400,490C2240,490,2080,490,1920,490C1760,490,1600,490,1440,490C1280,490,1120,490,960,490C800,490,640,490,480,490C320,490,160,490,80,490L0,490Z"/></svg>